<svg id="_Layer_" data-name="&lt;Layer&gt;" xmlns="http://www.w3.org/2000/svg" viewBox="0 0 2646.64 1796.86"><defs><style>.cls-1{fill:#daebe8;}.cls-2{fill:#b8d5dc;}.cls-3{opacity:0.6;}.cls-4{fill:#acc9c5;}.cls-5{fill:#ccd39c;}.cls-6{fill:#c2c68e;}.cls-7{opacity:0.5;}.cls-8{fill:#68a1bf;}.cls-9{fill:#92bcb5;}.cls-10{fill:#ffb27d;}.cls-11{fill:#e9845c;}.cls-12{fill:#764678;}.cls-13{fill:#331832;}.cls-14{fill:#ef8062;}.cls-15{fill:#366f90;}.cls-16{fill:#020202;}.cls-17{fill:#080435;}.cls-18{fill:#e9633e;}.cls-19{fill:#fff;}.cls-20{fill:#5c305d;}.cls-21{fill:#ec865c;}.cls-22{opacity:0.3;}.cls-23{fill:#73b3ce;}.cls-24{fill:#92a5e6;}</style></defs><path class="cls-1" d="M2821.08,438.5V1557.32c0,76.12-28.14,141.74-74.94,193.92-63.53,70.8-161.43,116.86-270.12,130.92-122,15.8-240.32,18-364.57,15.27-142.18-3.15-314.8-13.57-546.53-28.47-260.9-16.75-783.65,11-1045.46,13.2-190.55,1.61-345-145.44-345-324.84V438.5c0-179.4,154.8-335.38,345-324.84,2.14.12,48.87,2.29,198.67,15.83,169.75,14.31,335.75,24.18,508.72,9,319.21-28,931.74-52.41,1249.17-24.84,91.35,7.94,174.7,41.93,236.58,95.09C2780.19,266.7,2821.08,346.58,2821.08,438.5Z" transform="translate(-174.44 -101.57)"/><ellipse class="cls-2" cx="1344.57" cy="1530" rx="1162.03" ry="119.42"/><g class="cls-3"><path class="cls-4" d="M1683,1166s431.19-947.95,684-821.28S1937.34,916,1820.56,1195.88Z" transform="translate(-174.44 -101.57)"/></g><path class="cls-5" d="M1843.38,1179.62S2339.31,560,2538.79,708.79,2094.56,1046,1957.14,1231.23Z" transform="translate(-174.44 -101.57)"/><path class="cls-6" d="M1906.76,1209.05c92.58-129.63,237-237.55,341.76-305.26,113.63-73.4,206.47-116.63,207.4-117.06l-2.68-5.78c-.92.43-94.18,43.85-208.17,117.5-105.28,68-250.33,176.46-343.49,306.9Z" transform="translate(-174.44 -101.57)"/><path class="cls-4" d="M2395.76,1329.33c-86.66,19.77-70.76,151.11-170,127.81-83.95-19.74-91.09-27.39-119.8-3a137,137,0,0,0-25.41,29c-8.52,12.94-25.05,32-50.43,36.78-155,29-370-198.37-209.34-326.78,11.61-9.27,28.6-13,47.43-16.14,102.12-17.1,134.52,29.5,213.77-91.95s190.59,50.18,259.13,43.33,128.77-28.09,183,44S2482.43,1309.63,2395.76,1329.33Z" transform="translate(-174.44 -101.57)"/><g class="cls-7"><path class="cls-8" d="M1872.12,1359.82l-3.32-4.82c2.12-1.46,217.49-146.51,667.87-162l.2,5.84C2088.18,1214.28,1874.23,1358.36,1872.12,1359.82Z" transform="translate(-174.44 -101.57)"/><path class="cls-8" d="M2150.48,1182.76c-60-52.83-70.93-95.17-71.37-96.94l5.68-1.4c.1.42,11.08,42.48,69.56,93.95Z" transform="translate(-174.44 -101.57)"/><path class="cls-8" d="M2161.47,1245.71c-17-29.24-15.9-71.66,3.22-122.66a391,391,0,0,1,34.09-68.55l4.89,3.2c-.77,1.17-76.28,117.84-37.14,185.07Z" transform="translate(-174.44 -101.57)"/><path class="cls-8" d="M2279.92,1234.23c-7.14-5.84-11-9.64-11.18-9.81l4.14-4.14c.8.81,82.28,80.84,201.18,76l.24,5.83C2378.49,1306,2306.51,1256,2279.92,1234.23Z" transform="translate(-174.44 -101.57)"/><path class="cls-8" d="M2339.83,1368.77c-27.47-30-35.55-60.16-37.49-80.19-2.11-21.81,2.29-36.37,2.48-37l5.59,1.73c-.18.56-16.57,56.59,33.73,111.49Z" transform="translate(-174.44 -101.57)"/></g><path class="cls-4" d="M2087.45,336.35c15.43-21.36,26.8-22.82,35.18-16.77s10.58,17.31-4.85,38.67c-28.11,38.93-56.86,46.79-56.86,46.79S2058.93,375.85,2087.45,336.35Z" transform="translate(-174.44 -101.57)"/><g class="cls-3"><path class="cls-4" d="M2532.82,1005.35c28-.53,36.52,8.21,36.73,19.19s-8,20-36,20.58c-51,1-76.09-18.44-76.09-18.44S2481,1006.34,2532.82,1005.35Z" transform="translate(-174.44 -101.57)"/></g><g class="cls-3"><path class="cls-4" d="M2457.67,950.22c18-19.27,29.45-19.29,37-12.25s8.32,18.5-9.66,37.77c-32.75,35.1-62.26,39.31-62.26,39.31S2424.44,985.83,2457.67,950.22Z" transform="translate(-174.44 -101.57)"/></g><path class="cls-4" d="M886.74,405.81c-14.31,21-25.24,22.72-33.47,17.12s-10.66-16.4,3.64-37.42c26.05-38.28,53.56-46.63,53.56-46.63S913.17,367,886.74,405.81Z" transform="translate(-174.44 -101.57)"/><path class="cls-4" d="M956.25,555.14c-6.73,24.51-16.52,29.66-26.13,27s-15.39-12.07-8.66-36.58c12.27-44.65,35.59-61.45,35.59-61.45S968.7,509.84,956.25,555.14Z" transform="translate(-174.44 -101.57)"/><path class="cls-4" d="M1130.61,946.88l-4.52,1.67c-.25-.69-26.65-70.53-95.91-158.34-63.91-81-178.44-194.34-361.13-274.11l1.93-4.41C854.67,591.9,969.83,705.9,1034.09,787.4,1103.76,875.77,1130.34,946.18,1130.61,946.88Z" transform="translate(-174.44 -101.57)"/><path class="cls-4" d="M868.74,628l-4.77-.61c22.17-173.3-105.61-310.44-106.91-311.8l3.5-3.31C761.86,313.65,891.21,452.39,868.74,628Z" transform="translate(-174.44 -101.57)"/><path class="cls-4" d="M769.86,588.46c-44.17,20.92-88,14.62-88.52,14.54l.72-4.75c.56.08,56.72,8.09,104.89-25.17l2.74,4A141.55,141.55,0,0,1,769.86,588.46Z" transform="translate(-174.44 -101.57)"/><path class="cls-4" d="M654.67,493.23c32.83,9.86,40.27,20.52,37.41,30.07s-15,14.34-47.78,4.49c-59.81-17.95-83.53-43.9-83.53-43.9S594,475,654.67,493.23Z" transform="translate(-174.44 -101.57)"/><path class="cls-4" d="M686.34,583.42c34.28-.5,44.59,7.42,44.74,17.39S721.15,619,686.87,619.5c-62.43.92-92.87-16.68-92.87-16.68S623,584.35,686.34,583.42Z" transform="translate(-174.44 -101.57)"/><path class="cls-4" d="M781.52,498.14c15.83,19.88,14.22,30.83,6.43,37s-18.82,5.32-34.66-14.57c-28.84-36.22-28.67-65-28.67-65S752.25,461.39,781.52,498.14Z" transform="translate(-174.44 -101.57)"/><path class="cls-4" d="M761.38,290.31C782.87,317,783,330,775.21,336.27s-20.45,3.37-41.94-23.34c-39.15-48.65-44-83.47-44-83.47S721.66,241,761.38,290.31Z" transform="translate(-174.44 -101.57)"/><path class="cls-4" d="M1302.9,1267.53s-330.44-670.6-509-574.1,321,400.3,411,598.57Z" transform="translate(-174.44 -101.57)"/><path class="cls-9" d="M1133.1,1165.14S670.53,579.34,482,718s415.7,319.94,543.79,495Z" transform="translate(-174.44 -101.57)"/><path class="cls-8" d="M1073.3,1192.43C987,1069.93,851.93,967.53,753.78,903.2c-106.42-69.74-193.47-111-194.34-111.39L562,786.4c.87.41,88.3,41.83,195.06,111.8,98.59,64.61,234.33,167.51,321.14,290.78Z" transform="translate(-174.44 -101.57)"/><path class="cls-5" d="M1181.39,1498.79c-75.22-1.44-163.05-.1-253,2.35A126.2,126.2,0,0,1,913.26,1474c-56.35-58.12-46.55-49.46-173.22-27-90.86,16.08-101.52-63.94-140.09-121.88-.69-1-1.41-2.1-2.13-3.15-14.88-21.45-34-39.47-63-47.81A371,371,0,0,1,444.91,1235q-3.44-2.09-6.8-4.27c-54.66-35.37-91.5-84-71.65-134.41.47-1.19,1-2.39,1.5-3.57A106.74,106.74,0,0,1,384,1067.68c73.38-87,147.77-56.08,233.63-42.67,47.47,7.4,115.2-53,181.73-81.72,1-.42,1.91-.82,2.86-1.22,52.82-22.07,104.69-23.24,144.83,46.39v0l2.44,4.19c89.71,153.33,134.11,98.14,260.43,126.54,23.49,5.3,44.64,11.15,58.61,23.65C1398.82,1259.31,1311.39,1420.42,1181.39,1498.79Z" transform="translate(-174.44 -101.57)"/><path class="cls-6" d="M1192.28,1349.11l4.51-5.83c-2.57-2-263.75-199.71-830-250.64l-.66,7.35C930.25,1150.73,1189.72,1347.14,1192.28,1349.11Z" transform="translate(-174.44 -101.57)"/><path class="cls-6" d="M854,1106.67c79.28-62.35,96-114.92,96.66-117.13l-7-2.16c-.16.52-16.92,52.73-94.17,113.49Z" transform="translate(-174.44 -101.57)"/><path class="cls-6" d="M835.74,1185.21c23.48-35.65,25-89.16,4.5-154.74a492.53,492.53,0,0,0-38.17-88.73l-6.38,3.7c.88,1.53,87.87,153.75,33.89,235.71Z" transform="translate(-174.44 -101.57)"/><path class="cls-6" d="M687.33,1162.49c9.4-6.86,14.54-11.38,14.77-11.59l-4.92-5.49c-1.07,1-109.29,96.09-258.71,81.64l-.71,7.34C558.16,1246,652.32,1188.05,687.33,1162.49Z" transform="translate(-174.44 -101.57)"/><path class="cls-6" d="M602.49,1327.78c36.7-35.85,49-73.3,52.81-98.39,4.18-27.33-.35-46-.54-46.76l-7.16,1.79c.18.71,16.93,72.45-50.27,138.09Z" transform="translate(-174.44 -101.57)"/><path class="cls-4" d="M423.06,933.87c-23.44-9.83-27.3-20.2-23.45-29.39s13.95-13.71,37.39-3.89c42.71,17.89,56.38,43.18,56.38,43.18S466.39,952,423.06,933.87Z" transform="translate(-174.44 -101.57)"/><path class="cls-10" d="M880.11,1140.41a49.31,49.31,0,0,1-19.9-7.06c-20.19-12.41-33.74-38.63-43.92-85-4.69-21.37-18.38-47.11-18.52-47.37l45.52-24.42c.7,1.31,17.2,32.24,23.45,60.72,3.54,16.11,5.42-85.61,14.13-95.23,5.34-5.89,26.85,3.81,26.85,3.81,3.45,13.06,12,40,17.07,80.7,3.06,24.62,4.33,44.83,3.78,60-.38,10.74-1.66,19.37-3.92,26.4-5.95,18.54-18.39,24.29-25.28,26.07A51.46,51.46,0,0,1,880.11,1140.41Z" transform="translate(-174.44 -101.57)"/><path class="cls-11" d="M886.92,1135.37c-5.61,0-10-2.17-10-4.94,0-1.42,1.11-2.72,3.13-3.65a17.06,17.06,0,0,1,6.91-1.34h0c5.62,0,10,2.17,10,4.94,0,1.43-1.11,2.72-3.13,3.65a17.07,17.07,0,0,1-6.92,1.34Zm.08-8.58h0a15.56,15.56,0,0,0-6.35,1.21c-1.49.69-2.35,1.57-2.35,2.43,0,1.7,3.56,3.59,8.67,3.59H887a15.53,15.53,0,0,0,6.35-1.21c1.5-.68,2.36-1.57,2.35-2.43C895.67,1128.68,892.11,1126.79,887,1126.79Z" transform="translate(-174.44 -101.57)"/><path class="cls-11" d="M861.54,1089.43a.69.69,0,0,1-.67-.59c0-.28-3.49-28.69,7-51a.68.68,0,0,1,.9-.31.67.67,0,0,1,.32.89c-10.38,21.91-7,49.93-6.93,50.21a.68.68,0,0,1-.59.75Z" transform="translate(-174.44 -101.57)"/><path class="cls-12" d="M732.32,924.93S735.17,914.55,723,911s-3.83,24.43-34.12,21.42-20.08,9.76-29.82,19-52.46-12.07-67.78,24.6,11.6,63.6,64.53,65.46,32,31.07,76.82,14.84,25-87.61,12.37-98.81S732.32,924.93,732.32,924.93Z" transform="translate(-174.44 -101.57)"/><path class="cls-13" d="M773.79,1606.14s.41,16.3,11.44,20.9,43,8.74,31,19.22c-6.85,6-39.14,2.13-48.25,2.13s-17.68,4-24.45-2.13c-7.45-6.72,0-40.12,0-40.12s7.87,4.1,14.94,3.91C768.7,1609.79,773.79,1606.14,773.79,1606.14Z" transform="translate(-174.44 -101.57)"/><path class="cls-13" d="M647.15,1606.14s.41,16.3,11.44,20.89,43,8.75,31,19.23c-6.85,6-39.14,2.12-48.25,2.12s-17.68,4-24.45-2.13c-7.45-6.71,0-40.11,0-40.11s7.87,4.1,14.94,3.91C642.06,1609.79,647.15,1606.14,647.15,1606.14Z" transform="translate(-174.44 -101.57)"/><path class="cls-14" d="M855.75,1159.39S855,1234.5,848.92,1367c-4.73,103.9-3.76,200.19-12.86,245.83-3.26,16.32-123.73,8-122.44-10l28.52-321,5.44-101.63Z" transform="translate(-174.44 -101.57)"/><path class="cls-13" d="M656.59,1219.42c1,8.3,47.95,7.29,105.43,0s102.22-19.73,101.22-28-47.38-9.31-104.86-2S655.58,1211.12,656.59,1219.42Z" transform="translate(-174.44 -101.57)"/><path class="cls-14" d="M789.76,1208.11l-107,404.65c-5.13,16.5-106.63,14.29-103.45-3.23l83-382.72a12.18,12.18,0,0,1,8.47-9.13C693.82,1211,792,1191.81,789.76,1208.11Z" transform="translate(-174.44 -101.57)"/><path class="cls-15" d="M678.62,985.39s10.92-36.71,69.08-34.62c31.91,1.15,65.49-7.84,80.45,42.18,14.47,48.42,30.17,124.31,35.09,198.46,0,0-95.25-20.89-206.82,27.84C656.42,1219.25,653.08,1052.35,678.62,985.39Z" transform="translate(-174.44 -101.57)"/><path class="cls-15" d="M637.19,980l36.46,30s137.5,35,157.57,14.67c13.77-14,21.13-33.89,16.45-44.21,0,0-37.74-34.59-97.4-31.79a197.52,197.52,0,0,1-22.94.18C678.62,946.05,637.19,980,637.19,980Z" transform="translate(-174.44 -101.57)"/><path class="cls-16" d="M728.66,1443.23l-2-.47,32.67-139.24a78.18,78.18,0,0,1,35.33-43.63l1,1.79a76.06,76.06,0,0,0-34.37,42.4Z" transform="translate(-174.44 -101.57)"/><path class="cls-10" d="M724.42,949a17.78,17.78,0,0,0,14.48-10.6l8-18.5,2.31-5.36,13.59-31.57-2.36,32.71L759,935.28l-.41,5.59a8.93,8.93,0,0,0,7.37,9.42H766c2.42,3.94,5.76,11.93-4.22,15.1-11.73,3.74-30.69-5.49-37.5-16.43Z" transform="translate(-174.44 -101.57)"/><path class="cls-13" d="M748.54,918.53c.78,10.55,10.39,16.8,10.39,16.8l.07-.05,1.41-19.64C757,914.38,748.52,918.35,748.54,918.53Z" transform="translate(-174.44 -101.57)"/><ellipse class="cls-10" cx="760.32" cy="886.33" rx="30.73" ry="37.92" transform="translate(-426.22 202.26) rotate(-19.45)"/><path class="cls-17" d="M763.25,885.68a.71.71,0,0,0,.3-.55.69.69,0,0,0-.67-.72,7.56,7.56,0,0,0-7.86,4.91.71.71,0,0,0,.35.93.77.77,0,0,0,.93-.35,12,12,0,0,1,6.52-4.1A.7.7,0,0,0,763.25,885.68Z" transform="translate(-174.44 -101.57)"/><path class="cls-17" d="M760.59,894.77c.51,1.59,1.85,2.58,3,2.21s1.68-2,1.17-3.54-1.85-2.58-3-2.22S760.09,893.18,760.59,894.77Z" transform="translate(-174.44 -101.57)"/><path class="cls-17" d="M788,880.81a.74.74,0,0,0,.49-.39.7.7,0,0,0-.34-.93A7.57,7.57,0,0,0,779,881a.7.7,0,0,0,0,1,.78.78,0,0,0,1,0,11.89,11.89,0,0,1,7.59-1.3A.75.75,0,0,0,788,880.81Z" transform="translate(-174.44 -101.57)"/><path class="cls-17" d="M782.07,888.2c-.14,1.66.73,3.09,1.94,3.19s2.29-1.17,2.43-2.83-.73-3.09-1.93-3.19S782.21,886.53,782.07,888.2Z" transform="translate(-174.44 -101.57)"/><path class="cls-14" d="M702.8,1210.42s114.72-21.91,151.92-11.58l-17.84,26.44L770.57,1229Z" transform="translate(-174.44 -101.57)"/><path class="cls-12" d="M740.6,867.62c3.33,6.11,18.88,5.78,29.64,2.6,13.44-4,18.36,13.16,20.91,5.22s1.62-30.42-13.74-38.89-50.8,1.06-53,13.17C721.1,867.56,737.75,862.4,740.6,867.62Z" transform="translate(-174.44 -101.57)"/><path class="cls-12" d="M726.21,856.71s9.53-.92,10.53,3.14,9.78,9.28,4.85,13.8-5.79,6.5-4.24,10.83c1.09,3-1.84,11.56-1.6,18.29.11,2.93,3.66,8,3.66,8s-24.77.34-29.74-26.32C706.43,867.06,719.87,856.43,726.21,856.71Z" transform="translate(-174.44 -101.57)"/><ellipse class="cls-10" cx="736.35" cy="895.28" rx="6.94" ry="8.73" transform="translate(-577.69 1005.94) rotate(-61.11)"/><path class="cls-17" d="M699,1019.11c-2.81,4.44-18.92-.71-36-11.51s-28.62-23.17-25.8-27.61,18.92.71,36,11.51S701.79,1014.66,699,1019.11Z" transform="translate(-174.44 -101.57)"/><path class="cls-10" d="M650.74,1146.47s19.26-17.64,34.47-16.08,33.45,15,23.82,16.08-22.3-1-22.3-1,26.87,5.7,22.81,11.41-27.37.52-27.37.52,31.43,9.33,25.85,13.48-29.4-3.11-29.4-3.11,28.89,9.85,22.3,14.52-23.82-8.3-27.88-2.59-11.65,28-28.89,18.67Z" transform="translate(-174.44 -101.57)"/><path class="cls-11" d="M686.73,1146l-.2,0c-.07,0-7.16-2.63-10.77-.07a.57.57,0,0,1-.66-.92c4.11-2.91,11.52-.19,11.83-.07a.56.56,0,0,1-.2,1.09Z" transform="translate(-174.44 -101.57)"/><path class="cls-11" d="M668.68,1157.92a.56.56,0,0,1-.23-1.08c6.49-2.89,13.63-.13,13.93,0a.57.57,0,0,1-.42,1.05c-.07,0-7-2.7-13.05,0A.5.5,0,0,1,668.68,1157.92Z" transform="translate(-174.44 -101.57)"/><path class="cls-11" d="M678.62,1168.29a.69.69,0,0,1-.2,0c-.08,0-8.5-3.14-12.11-.1a.56.56,0,0,1-.79-.07.57.57,0,0,1,.06-.79c4.12-3.47,12.87-.24,13.24-.1a.56.56,0,0,1-.2,1.09Z" transform="translate(-174.44 -101.57)"/><path class="cls-10" d="M912.59,979.12s27.66,2.35,38.49-8.44,16.49-32.76,8.36-27.5S942.78,958,942.78,958,960,936.68,953.3,934.81s-21.58,16.84-21.58,16.84,18.52-27,11.57-26.76-20.86,21-20.86,21,16.22-25.86,8.16-25.33-13.26,21.45-20,19.58-32.94-8.31-32.94,10.6Z" transform="translate(-174.44 -101.57)"/><path class="cls-11" d="M934,965.73a.57.57,0,0,1,0-1.13c4.42-.29,8.28-6.78,8.32-6.85a.57.57,0,0,1,1,.58c-.17.28-4.21,7.07-9.23,7.4Z" transform="translate(-174.44 -101.57)"/><path class="cls-11" d="M921.24,960.72a.55.55,0,0,1-.54-.42.57.57,0,0,1,.4-.69c6.39-1.72,10.09-8.17,10.13-8.23a.56.56,0,1,1,1,.55c-.16.28-4,6.92-10.82,8.77Z" transform="translate(-174.44 -101.57)"/><path class="cls-11" d="M912.68,954.39h-.1a.57.57,0,1,1,0-1.13c4.76.09,9.3-7.63,9.34-7.71a.56.56,0,0,1,.77-.2.57.57,0,0,1,.21.77C922.72,946.46,918,954.39,912.68,954.39Z" transform="translate(-174.44 -101.57)"/><path class="cls-10" d="M644.15,1198.33c-26.25-10.06-65.08-35-72.48-73.87-5.69-29.88,5.1-63.92,32.06-101.2a183,183,0,0,1,39.75-40s7.91-1.85,25.16,8.59c20.81,12.58,24,24.31,24,24.31-19.93,18.38-67.79,56.34-66.07,85.51,1,17.06,12.26,32.93,31.39,40.25Z" transform="translate(-174.44 -101.57)"/><path class="cls-18" d="M783,903.59a62.18,62.18,0,0,1-19.49,3.3s2.35,9.35,12.55,6.53C782,911.78,783,903.59,783,903.59Z" transform="translate(-174.44 -101.57)"/><path class="cls-19" d="M783,903.59s-1.6,2.61-6.81,4.38-12.68-1.08-12.68-1.08S775.71,906.13,783,903.59Z" transform="translate(-174.44 -101.57)"/><path class="cls-12" d="M1874.62,1616.38l-801.43,14.09a62.49,62.49,0,0,1-63.58-61.19l-22-1067.49a62.5,62.5,0,0,1,60.09-63.73l860.27-33a62.5,62.5,0,0,1,64.85,64.57L1936,1556A62.48,62.48,0,0,1,1874.62,1616.38Z" transform="translate(-174.44 -101.57)"/><path class="cls-1" d="M1826.51,1543.35l-703.66,12.37A54.86,54.86,0,0,1,1067,1502l-6.91-968.12a24.27,24.27,0,0,1,23.34-24.43l782-30a45.92,45.92,0,0,1,47.66,47.45l-32.71,963.44A54.86,54.86,0,0,1,1826.51,1543.35Z" transform="translate(-174.44 -101.57)"/><path class="cls-14" d="M1281,514l371.9-11.85a30.29,30.29,0,0,0,29.16-33.42l-2.95-28.21a59.6,59.6,0,0,0-60.81-53.4l-296.78,7.54a62.91,62.91,0,0,0-60.89,55.64l-4.28,36.9A24,24,0,0,0,1281,514Z" transform="translate(-174.44 -101.57)"/><path class="cls-14" d="M1189,630.88a7,7,0,0,1,7-7h22.34c17.15,0,27.52,10.17,27.52,25.06,0,16.64-12.94,25.27-29.06,25.27h-5a7,7,0,0,0-7,7v7.49a7,7,0,0,1-7,7H1196a7,7,0,0,1-7-7Zm28.35,29.22c7.91,0,12.53-4.73,12.53-11.09,0-7.09-4.93-10.89-12.84-10.89h-5.18a7,7,0,0,0-7,7v7.91a7,7,0,0,0,7,7Z" transform="translate(-174.44 -101.57)"/><path class="cls-14" d="M1257.57,630.88a7,7,0,0,1,7-7h25.83c9.14,0,16.23,2.57,21,7.3,4,4,6.16,9.65,6.16,16.63,0,8.71-3.53,15-9.14,19a7,7,0,0,0-1.87,9.72l5.64,8.23a7,7,0,0,1-5.81,11H1305a7,7,0,0,1-5.83-3.09l-11.42-16.83a7,7,0,0,0-5.82-3.09h-1.46a7,7,0,0,0-7,7v8.93a7,7,0,0,1-7,7h-1.75a7,7,0,0,1-7-7Zm31.84,27.88c7.7,0,12.12-4.1,12.12-10.37,0-6.78-4.73-10.27-12.43-10.27h-8.68a7,7,0,0,0-7,7v6.58a7,7,0,0,0,7,7Z" transform="translate(-174.44 -101.57)"/><path class="cls-14" d="M1339.58,623.84h1.75a7,7,0,0,1,7,7V688.7a7,7,0,0,1-7,7h-1.75a7,7,0,0,1-7-7V630.88A7,7,0,0,1,1339.58,623.84Z" transform="translate(-174.44 -101.57)"/><path class="cls-14" d="M1363.16,659.79c0-20.44,16.12-37.18,38.31-37.18s38.1,16.54,38.1,37.18c0,20.44-16.12,37.18-38.31,37.18S1363.16,680.44,1363.16,659.79Zm59.88,0c0-12.32-9-22.6-21.78-22.6s-21.57,10.07-21.57,22.6c0,12.33,9,22.6,21.78,22.6S1423,672.32,1423,659.79Z" transform="translate(-174.44 -101.57)"/><path class="cls-14" d="M1453.65,630.88a7,7,0,0,1,7-7h25.83c9.14,0,16.23,2.57,21,7.3,4,4,6.16,9.65,6.16,16.63,0,8.71-3.53,15-9.14,19a7,7,0,0,0-1.86,9.72l5.63,8.23a7,7,0,0,1-5.81,11H1501a7,7,0,0,1-5.83-3.09l-11.42-16.83a7,7,0,0,0-5.82-3.09h-1.46a7,7,0,0,0-7,7v8.93a7,7,0,0,1-7,7h-1.75a7,7,0,0,1-7-7Zm31.84,27.88c7.7,0,12.12-4.1,12.12-10.37,0-6.78-4.73-10.27-12.43-10.27h-8.68a7,7,0,0,0-7,7v6.58a7,7,0,0,0,7,7Z" transform="translate(-174.44 -101.57)"/><path class="cls-14" d="M1535.66,623.84h1.75a7,7,0,0,1,7,7V688.7a7,7,0,0,1-7,7h-1.75a7,7,0,0,1-7-7V630.88A7,7,0,0,1,1535.66,623.84Z" transform="translate(-174.44 -101.57)"/><path class="cls-14" d="M1572.13,638.43h-7.81a7,7,0,0,1-7-7v-.51a7,7,0,0,1,7-7h45.5a7,7,0,0,1,7,7v.51a7,7,0,0,1-7,7H1602a7,7,0,0,0-7,7V688.7a7,7,0,0,1-7,7h-1.74a7,7,0,0,1-7-7V645.46A7,7,0,0,0,1572.13,638.43Z" transform="translate(-174.44 -101.57)"/><path class="cls-14" d="M1636.73,623.84h1.75a7,7,0,0,1,7,7V688.7a7,7,0,0,1-7,7h-1.75a7,7,0,0,1-7-7V630.88A7,7,0,0,1,1636.73,623.84Z" transform="translate(-174.44 -101.57)"/><path class="cls-14" d="M1670.53,623.84h40.16a7,7,0,0,1,7,7h0a7,7,0,0,1-7,7h-24.45a7,7,0,0,0-7,7v.51a7,7,0,0,0,7,7h19.83a7,7,0,0,1,7,7h0a7,7,0,0,1-7,7h-19.83a7,7,0,0,0-7,7v1a7,7,0,0,0,7,7h25a7,7,0,0,1,7,7h0a7,7,0,0,1-7,7h-40.67a7,7,0,0,1-7-7V630.88A7,7,0,0,1,1670.53,623.84Z" transform="translate(-174.44 -101.57)"/><path class="cls-14" d="M1732.14,679.56l.37-.44a7,7,0,0,1,9.18-1.41,30,30,0,0,0,16.5,5.09c6.47,0,10.38-2.57,10.38-7,0-4-2.47-6.06-14.48-9.14-14.49-3.7-23.83-7.7-23.83-22.18,0-13,10.47-21.67,25.16-21.67a42.54,42.54,0,0,1,20.15,4.81,7,7,0,0,1,2.49,10.22l-.37.53a7.08,7.08,0,0,1-9.19,2.17,28.48,28.48,0,0,0-13.28-3.77c-6.07,0-9.25,2.78-9.25,6.47,0,4.73,3.08,6.27,15.51,9.45,14.58,3.8,22.8,9,22.8,21.78,0,14.27-10.89,22.29-26.39,22.29a46.21,46.21,0,0,1-24-6.65A7.06,7.06,0,0,1,1732.14,679.56Z" transform="translate(-174.44 -101.57)"/><path class="cls-2" d="M1260.56,919.87c-.78,0-1.56,0-2.35-.08h0L1172,913.85a32.12,32.12,0,0,1-29.82-32V811.17a30,30,0,0,1,29.14-30.08l94.91-3a29.09,29.09,0,0,1,30,30l-2.52,79.67a33.25,33.25,0,0,1-33.14,32.17Zm-.77-23a10.24,10.24,0,0,0,11-9.9l2.52-79.67A6.09,6.09,0,0,0,1267,801l-94.91,3a7.11,7.11,0,0,0-6.9,7.13V881.9a9.09,9.09,0,0,0,8.43,9Z" transform="translate(-174.44 -101.57)"/><path class="cls-2" d="M1260.56,1124.77c-.78,0-1.56,0-2.35-.08h0l-86.21-5.94a32.12,32.12,0,0,1-29.82-32v-70.73A30,30,0,0,1,1171.32,986l94.91-3a29.09,29.09,0,0,1,30,30l-2.52,79.67a33.25,33.25,0,0,1-33.14,32.17Zm-.77-23a10.26,10.26,0,0,0,11-9.91l2.52-79.67a6.09,6.09,0,0,0-6.3-6.29l-94.91,3a7.11,7.11,0,0,0-6.9,7.13v70.73a9.09,9.09,0,0,0,8.43,9Z" transform="translate(-174.44 -101.57)"/><path class="cls-2" d="M1260.56,1323.8c-.78,0-1.56,0-2.35-.08l-86.21-5.94a32.11,32.11,0,0,1-29.82-31.94V1215.1a30,30,0,0,1,29.14-30.08l94.91-3a29.07,29.07,0,0,1,30,30l-2.52,79.67a33.23,33.23,0,0,1-33.14,32.17Zm6.61-118.86H1267l-94.91,3a7.11,7.11,0,0,0-6.9,7.13v70.74a9.08,9.08,0,0,0,8.43,9l86.21,5.94a10.26,10.26,0,0,0,11-9.91l2.52-79.66a6.08,6.08,0,0,0-6.09-6.3Z" transform="translate(-174.44 -101.57)"/><path class="cls-14" d="M1183.53,816.29a4,4,0,0,0-6.08,4.92l32.25,55.16c6,12.15,18.43,7.42,25.77-4l60.13-93.17a3.19,3.19,0,0,0-4.58-4.4l-54.42,57.39c-25.36,24.48-27.67,11.49-42.11-3.83C1190.56,824.25,1183.53,816.29,1183.53,816.29Z" transform="translate(-174.44 -101.57)"/><path class="cls-14" d="M1183.53,1218.17a4,4,0,0,0-6.08,4.93l32.25,55.16c6,12.15,18.43,7.42,25.77-4l60.13-93.17a3.19,3.19,0,0,0-4.58-4.4l-54.42,57.39c-25.36,24.48-27.67,11.49-42.11-3.83C1190.56,1226.14,1183.53,1218.17,1183.53,1218.17Z" transform="translate(-174.44 -101.57)"/><path class="cls-2" d="M1616.24,839.57l-246.08-6A10.58,10.58,0,0,1,1359.84,823h0a10.57,10.57,0,0,1,10.57-10.57h245.34a10.59,10.59,0,0,1,10.5,9.26l.74,6A10.57,10.57,0,0,1,1616.24,839.57Z" transform="translate(-174.44 -101.57)"/><path class="cls-2" d="M1616.24,885.44l-246.08-6a10.57,10.57,0,0,1-10.32-10.57h0a10.58,10.58,0,0,1,10.57-10.58h245.34a10.59,10.59,0,0,1,10.5,9.26l.74,6A10.57,10.57,0,0,1,1616.24,885.44Z" transform="translate(-174.44 -101.57)"/><path class="cls-2" d="M1616.24,1044.47l-246.08-6a10.57,10.57,0,0,1-10.32-10.57h0a10.57,10.57,0,0,1,10.57-10.58h245.34a10.59,10.59,0,0,1,10.5,9.26l.74,6A10.57,10.57,0,0,1,1616.24,1044.47Z" transform="translate(-174.44 -101.57)"/><path class="cls-2" d="M1616.24,1090.34l-246.08-6a10.57,10.57,0,0,1-10.32-10.57h0a10.58,10.58,0,0,1,10.57-10.58h245.34a10.59,10.59,0,0,1,10.5,9.26l.74,6A10.57,10.57,0,0,1,1616.24,1090.34Z" transform="translate(-174.44 -101.57)"/><path class="cls-2" d="M1616.24,1239.52l-246.08-6a10.57,10.57,0,0,1-10.32-10.57h0a10.58,10.58,0,0,1,10.57-10.58h245.34a10.59,10.59,0,0,1,10.5,9.26l.74,6A10.57,10.57,0,0,1,1616.24,1239.52Z" transform="translate(-174.44 -101.57)"/><path class="cls-2" d="M1616.24,1285.4l-246.08-6a10.58,10.58,0,0,1-10.32-10.58h0a10.58,10.58,0,0,1,10.57-10.58h245.34a10.59,10.59,0,0,1,10.5,9.26l.74,6A10.58,10.58,0,0,1,1616.24,1285.4Z" transform="translate(-174.44 -101.57)"/><path class="cls-10" d="M1891.72,1022.24c-7.24-7.52,19.75-40.63,19.75-40.63,2.89-1.91,49,44.25,103.78,28.51,19.49-5.6,47.13-38.71,49.19-43.69.28-.66,42.4,15.87,42.4,15.87-3.73,9-2.89,41.06-24.21,59.64C2038.53,1080.39,1963.43,1082.6,1891.72,1022.24Z" transform="translate(-174.44 -101.57)"/><path class="cls-13" d="M2133.75,1568.94s-.76,14.67-10.81,18.55-39,6.84-28.45,16.57c6,5.58,35.22,2.87,43.44,3.09s15.83,4,22.08-1.32c6.88-5.87,1-36.16,1-36.16s-7.19,3.5-13.56,3.16C2138.25,1572.35,2133.75,1568.94,2133.75,1568.94Z" transform="translate(-174.44 -101.57)"/><path class="cls-12" d="M2060,1123.38s-3.77,66.23,13.95,193.95c12.8,92.21,28.33,185.2,36,229.79a34.62,34.62,0,0,0,31.56,29l8.49.57c17.08,1.15,31.35-13.16,30.57-30.65l-13.37-300.61-2.62-98.89Z" transform="translate(-174.44 -101.57)"/><path class="cls-13" d="M2227.88,1571.47s-.77,14.68-10.82,18.56-38.95,6.83-28.44,16.57c6,5.58,35.22,2.87,43.43,3.09s15.84,4,22.09-1.33c6.88-5.86,1-36.15,1-36.15s-7.18,3.5-13.55,3.16C2232.37,1574.89,2227.88,1571.47,2227.88,1571.47Z" transform="translate(-174.44 -101.57)"/><path class="cls-12" d="M2154.08,1125.91s-3.77,66.23,14,194c12.8,92.21,28.33,185.2,36,229.78a34.6,34.6,0,0,0,31.56,29l8.48.57c17.08,1.15,31.35-13.16,30.58-30.66l-13.37-300.6-2.62-98.89Z" transform="translate(-174.44 -101.57)"/><path class="cls-13" d="M2267.63,1201.67c-.42,8-48.87,9.87-108.63,6.39s-107.33-13-106.91-21,48.68-11.39,108.44-7.91S2268.05,1193.68,2267.63,1201.67Z" transform="translate(-174.44 -101.57)"/><path class="cls-14" d="M2259.09,974.87s-9.45-42.2-87.47-44.73c-112.51-3.65-104.88,100-119.53,256.89,0,0,111.27-12.69,215.64,12.68C2267.73,1199.71,2281.8,1039.58,2259.09,974.87Z" transform="translate(-174.44 -101.57)"/><path class="cls-14" d="M2288.06,969.64l-51.73,26.82s-111.87,7.13-141.36,1.45-37-27.65-37-27.65,32.43-31.8,86.29-39.07q7.59-1,15.73-1.36a154.65,154.65,0,0,1,27.1,1.27C2254.82,940.59,2288.06,969.64,2288.06,969.64Z" transform="translate(-174.44 -101.57)"/><path class="cls-10" d="M2182.61,920.84l-5.38-19.17-1.56-5.58-9.21-32.82-2.19,32.34L2163,915l-.42,6.14c-.28,4.17-2.85,5-6.05,8.52-1.29,1.44-9.56,10.13-.56,14.41,11.22,5.32,32.65-1.7,41-11.44C2196.84,932.64,2184.35,927,2182.61,920.84Z" transform="translate(-174.44 -101.57)"/><path class="cls-12" d="M2061.34,1193.75s65.32-17.32,198.82,12.47l.52,19.34-196.94,1.64Z" transform="translate(-174.44 -101.57)"/><ellipse class="cls-13" cx="2266.62" cy="986.15" rx="27.19" ry="13.56" transform="matrix(0.82, -0.57, 0.57, 0.82, -334.69, 1353.98)"/><path class="cls-10" d="M2296.47,1216.26c-3.3-51.78-12.07-125.92-35.13-185.07-5.34-13.7-7.58-18.85-11.83-26.37-3.43-6.05,3.34-19,13.63-24.93,9.65-5.6,24.42-4.25,26.68-1.28,3.84,5,7.83,14.59,14,29.77,21.55,52.73,33.49,120.42,36.72,207.36Z" transform="translate(-174.44 -101.57)"/><path class="cls-20" d="M2147.45,845.05a42.79,42.79,0,0,0-3.58,17.39c0,10.09,14.76-11.67,14.76-11.67Z" transform="translate(-174.44 -101.57)"/><path class="cls-10" d="M2142.13,865c6.3-18.2,23.65-28.73,38.75-23.5s22.23,24.22,15.92,42.43-23.64,28.72-38.74,23.5S2135.83,883.2,2142.13,865Z" transform="translate(-174.44 -101.57)"/><path class="cls-13" d="M2199.52,874.28,2186.1,870a10.23,10.23,0,0,1-6.49-6c-1.9-5-4.82-7.93-17.72-10.08-16.32-2.72-25-14.58-25-23.42,0-9,9.48-13.18,16.77-7.38s5.88-5,13.93-4.5c15,1,15.45,12.83,27.5,14.92,15.8,2.75,41.47,20.45,22.45,45.35Z" transform="translate(-174.44 -101.57)"/><path class="cls-17" d="M2168.27,872.72a.61.61,0,0,1-.18-.5.58.58,0,0,1,.65-.51,6.35,6.35,0,0,1,5.85,5.13.59.59,0,0,1-.42.72.64.64,0,0,1-.71-.42,10,10,0,0,0-4.86-4.26A.64.64,0,0,1,2168.27,872.72Z" transform="translate(-174.44 -101.57)"/><path class="cls-17" d="M2169.25,880.6c-.64,1.25-1.88,1.89-2.79,1.43s-1.13-1.85-.49-3.09,1.88-1.89,2.78-1.43S2169.88,879.35,2169.25,880.6Z" transform="translate(-174.44 -101.57)"/><path class="cls-17" d="M2147.37,866.64a.4.4,0,0,1-.25-.35.7.7,0,0,1,.38-.73,4.12,4.12,0,0,1,5.72,1.87.71.71,0,0,1-.15.81.44.44,0,0,1-.66,0,6.09,6.09,0,0,0-4.75-1.55A.37.37,0,0,1,2147.37,866.64Z" transform="translate(-174.44 -101.57)"/><path class="cls-17" d="M2151.4,873.61c-.11,1.39-1,2.46-2,2.38s-1.75-1.27-1.64-2.67,1-2.46,2-2.38S2151.51,872.21,2151.4,873.61Z" transform="translate(-174.44 -101.57)"/><path class="cls-20" d="M2217.5,878.92s-13.67,18.49-27.41,17.23c0,0,14.06-13.34-6.88-27.54C2183.21,868.61,2204.91,869.62,2217.5,878.92Z" transform="translate(-174.44 -101.57)"/><path class="cls-10" d="M2196.25,886.31c-3.25,1.24-6.78-.11-7.88-3s.63-6.26,3.87-7.49,6.78.11,7.89,3S2199.5,885.07,2196.25,886.31Z" transform="translate(-174.44 -101.57)"/><path class="cls-20" d="M2183.21,868.61s-1.69,17.53-5.85,20.06-27.5-.82-37.4-7.19h0a22.88,22.88,0,0,0,13.81,26.36,33.54,33.54,0,0,0,11,2.23h0c7.8.23,15.76-1.38,20.3-7.73,1.39-1.93,1.33-15.58,1.33-15.58s.54-7.89,5.82-11C2192.24,875.8,2188,870.1,2183.21,868.61Z" transform="translate(-174.44 -101.57)"/><path class="cls-13" d="M2156.92,822.29a6.51,6.51,0,0,1-1.51-.18l.18-.77c3.7.88,4.66-2,4.69-2.16l.76.23A4.32,4.32,0,0,1,2156.92,822.29Z" transform="translate(-174.44 -101.57)"/><path class="cls-19" d="M2158.24,848.46c-.68-.35-16.6-8.86-15.45-18.15.33-2.69,1.15-4.37,2.53-5.13,2.18-1.21,5.24.19,7.94,1.44l1.17.53-.16.36-1.18-.54c-2.61-1.2-5.57-2.56-7.58-1.45-1.26.7-2,2.28-2.33,4.83-.58,4.7,3.58,9.27,7.17,12.28a53.62,53.62,0,0,0,8.07,5.49Z" transform="translate(-174.44 -101.57)"/><path class="cls-19" d="M2201.13,838.15c-17.52-1.2-23.78-12.51-23.84-12.63l.35-.18c.06.11,6.23,11.23,23.52,12.41Z" transform="translate(-174.44 -101.57)"/><path class="cls-19" d="M2145.71,889.35a54.1,54.1,0,0,0,16.6,3.11s-2.06,7.79-10.74,5.25C2146.52,896.23,2145.71,889.35,2145.71,889.35Z" transform="translate(-174.44 -101.57)"/><path class="cls-21" d="M2311.91,1100.27a6.69,6.69,0,0,1-4.92-2.45,13.61,13.61,0,0,1-1.95-14.15,6.49,6.49,0,0,1,4.81-3.84c4-.55,7.88,3.58,8.65,9.2h0c.77,5.62-1.85,10.64-5.85,11.19A6,6,0,0,1,2311.91,1100.27Zm-1.34-18.56-.45,0a4.63,4.63,0,0,0-3.35,2.79,11.67,11.67,0,0,0,1.65,12,4.6,4.6,0,0,0,4,1.79c2.89-.4,4.81-4.53,4.19-9C2316,1085,2313.31,1081.71,2310.57,1081.71Z" transform="translate(-174.44 -101.57)"/><path class="cls-10" d="M2313.74,1204.71h0a7.23,7.23,0,0,1-1,10.15l-25.94,21c-3.07,2.51-16.73,9.7-19.25,6.63h0c-2.51-3.07,5.92-13.46,8.63-16.36,6.24-6.7,15.88-22.5,22.25-29.07C2301.16,1194.19,2311.22,1201.63,2313.74,1204.71Z" transform="translate(-174.44 -101.57)"/><path class="cls-10" d="M2339.13,1204.4s4.43,16.12,3.42,40.13c-.31,7.31-48.76,8-50.71.07s6.31-33.67,6.31-33.67Z" transform="translate(-174.44 -101.57)"/><path class="cls-10" d="M2303.13,1221.85s-12.09-7.9-16.33,6.78c-6.89,23.85-.77,80.64,12.58,19.24.26-1.22-5.55,37.45,3.08,35.22s12.24-36.76,12.24-36.76-2.74,36.89,4.74,32.15,12.08-28.72,12.08-28.72-5.21,30.76,4.08,26.35c6.34-3,6.7-28.62,7.25-37.51.52-8.41-4.73-11.47-12.88-11.39,0,0-8.16-4.64-13.47-3.24-2,.53-3.9-1.48-5.36-1.75A52.49,52.49,0,0,0,2303.13,1221.85Z" transform="translate(-174.44 -101.57)"/><path class="cls-13" d="M2077.4,993.62l-1.23-.37c3.6-11.8,15-26.35,15.13-26.5l1,.8C2092.19,967.69,2080.93,982.06,2077.4,993.62Z" transform="translate(-174.44 -101.57)"/><path class="cls-13" d="M2170.91,1345.86c-.07-.54-7.32-54.74-12.76-74.14-5.4-19.22-30.41-35.93-30.66-36.1l.71-1.07c.26.17,25.66,17.14,31.18,36.82,5.47,19.49,12.73,73.78,12.8,74.32Z" transform="translate(-174.44 -101.57)"/><path class="cls-10" d="M1919,1009.33h0a7.24,7.24,0,0,1-8-6.39l-3.44-33.19c-.43-4,1-19.32,4.94-19.75h0c3.94-.43,8,12.3,9,16.15,2.21,8.88,10.2,25.58,12.24,34.5C1934.65,1004.52,1922.91,1008.9,1919,1009.33Z" transform="translate(-174.44 -101.57)"/><path class="cls-10" d="M1905.38,1030.78s-15.92-5.07-35.5-19c-6-4.24,19.86-45.24,27.59-42.54s24.78,23.65,24.78,23.65Z" transform="translate(-174.44 -101.57)"/><path class="cls-10" d="M1910.38,991.09s13.22-5.83,3.22-17.39c-16.23-18.78-67.17-44.61-23,.06.87.88-28.37-25.08-31.21-16.63s24.13,30.31,24.13,30.31S1854.13,965,1854,973.88s17.49,25.79,17.49,25.79-23-21.15-24.32-11c-.93,7,20.34,21.23,27.5,26.54,6.76,5,12.19,2.29,16.57-4.59,0,0,8.33-4.31,10.06-9.52.66-2,3.37-2.46,4.38-3.53A53.07,53.07,0,0,0,1910.38,991.09Z" transform="translate(-174.44 -101.57)"/><path class="cls-13" d="M1702.53,1675.66s-.41,16.29-11.44,20.89-43,8.75-31,19.23c6.85,6,39.14,2.12,48.26,2.12s17.67,4,24.45-2.13c7.45-6.71,0-40.12,0-40.12s-7.87,4.1-15,3.92C1707.62,1679.3,1702.53,1675.66,1702.53,1675.66Z" transform="translate(-174.44 -101.57)"/><path class="cls-13" d="M1829.18,1675.65s-.41,16.3-11.44,20.9-43,8.74-31,19.22c6.85,6,39.14,2.13,48.26,2.13s17.67,4,24.45-2.13c7.45-6.71,0-40.12,0-40.12s-7.86,4.1-14.94,3.92C1834.27,1679.3,1829.18,1675.65,1829.18,1675.65Z" transform="translate(-174.44 -101.57)"/><path class="cls-15" d="M1620.56,1228.87s-2,68.22,19.74,199.09c15.72,94.48,34.28,189.69,43.38,235.33a35.62,35.62,0,0,0,33.26,28.92l8.75.35c17.6.7,31.88-14.41,30.59-32.38l-22.09-308.8-5.45-101.63Z" transform="translate(-174.44 -101.57)"/><path class="cls-13" d="M1819.75,1288.9c-1,8.31-48,7.3-105.44,0s-102.23-19.73-101.23-28,47.38-9.31,104.86-2S1820.75,1280.6,1819.75,1288.9Z" transform="translate(-174.44 -101.57)"/><path class="cls-15" d="M1686.56,1277.6l122.73,394.23a39.56,39.56,0,0,0,36.92,28.1l7.37.13c17.42.3,30.73-15.81,27.56-33.33L1814,1296.29a12.19,12.19,0,0,0-8.47-9.13C1782.51,1280.52,1684.3,1261.29,1686.56,1277.6Z" transform="translate(-174.44 -101.57)"/><path class="cls-14" d="M1800.55,1061.93s-16.33-46-74.5-43.86-102.09,78.53-113,242.82c0,0,95.25-20.89,206.84,27.84C1819.92,1288.73,1826.1,1128.89,1800.55,1061.93Z" transform="translate(-174.44 -101.57)"/><path class="cls-14" d="M1838.05,1064.43l-37.86,21.11s-113.85,25.65-142,20.55-5-76,45.86-85.09c4.78-.87,16.83-2.55,22-2.92a143.34,143.34,0,0,1,25.73.56C1823.56,1026.43,1838.05,1064.43,1838.05,1064.43Z" transform="translate(-174.44 -101.57)"/><path class="cls-16" d="M1741.41,1453.8,1715,1373.57a76.1,76.1,0,0,0-34.37-42.4l1-1.79a78.1,78.1,0,0,1,35.31,43.54l26.39,80.24Z" transform="translate(-174.44 -101.57)"/><path class="cls-14" d="M1686.16,1007.84c-.32-.07-7.82-1.9-10.05-7.28-1.18-2.83-.64-6.11,1.59-9.73,1-1.62,1.91-3.08,2.75-4.41,5.82-9.29,7.79-12.42,6.26-19.69l.66-.14c1.58,7.53-.58,11-6.35,20.18-.84,1.34-1.75,2.8-2.74,4.41-2.12,3.43-2.63,6.5-1.54,9.12,2.09,5.06,9.5,6.87,9.58,6.88Z" transform="translate(-174.44 -101.57)"/><path class="cls-14" d="M1687,966.66a34.32,34.32,0,0,1-5.15,23.88c-7.73,12.21.68,21.13,11.15,16.43s14.47,8.66,27.85,1.28S1687,966.66,1687,966.66Z" transform="translate(-174.44 -101.57)"/><path class="cls-10" d="M1748.91,1018.24a16.08,16.08,0,0,1-13.11-9.59l-7.21-16.74-2.09-4.86-12.3-28.57,2.13,29.61,1.28,17.77.37,5.07a8.1,8.1,0,0,1-6.67,8.52h-.08c-2.18,3.56-5.21,10.8,3.83,13.67,10.61,3.38,27.78-5,33.94-14.88Z" transform="translate(-174.44 -101.57)"/><path class="cls-13" d="M1728.62,991.42l0,.49c-.71,9.54-10.92,14-10.92,14l-.06,0-1.28-17.77c3.12-1.14,7.57-2.32,10.17-1C1727.86,987.72,1728.71,989.06,1728.62,991.42Z" transform="translate(-174.44 -101.57)"/><ellipse class="cls-10" cx="1538.42" cy="861.65" rx="27.82" ry="34.32"/><path class="cls-10" d="M1737,968.39c-3.15,3-7.56,3.32-9.84.69s-1.58-7.2,1.57-10.21,7.56-3.31,9.84-.69S1740.1,965.38,1737,968.39Z" transform="translate(-174.44 -101.57)"/><path class="cls-18" d="M1697.87,985.42a60.54,60.54,0,0,0,19-3.11s.79,9.36-9.51,10C1701.39,992.66,1697.87,985.42,1697.87,985.42Z" transform="translate(-174.44 -101.57)"/><path class="cls-19" d="M1697.87,985.42s2.3,1.91,7.66,1.89,11.35-5,11.35-5S1705.42,985.45,1697.87,985.42Z" transform="translate(-174.44 -101.57)"/><path class="cls-17" d="M1710.16,963.55a.66.66,0,0,1-.42-.38.63.63,0,0,1,.35-.82,6.84,6.84,0,0,1,8.19,1.83.63.63,0,0,1,0,.89.71.71,0,0,1-.9,0,10.82,10.82,0,0,0-6.8-1.53A.61.61,0,0,1,1710.16,963.55Z" transform="translate(-174.44 -101.57)"/><path class="cls-17" d="M1715.17,970.5c0,1.51-.8,2.76-1.9,2.8s-2-1.16-2.07-2.67.8-2.76,1.9-2.8S1715.12,969,1715.17,970.5Z" transform="translate(-174.44 -101.57)"/><path class="cls-17" d="M1687.57,966.85a.64.64,0,0,1-.52-1.09,6.86,6.86,0,0,1,8.27-1.43.63.63,0,0,1,.32.84.69.69,0,0,1-.83.32,10.82,10.82,0,0,0-6.87,1.18A.68.68,0,0,1,1687.57,966.85Z" transform="translate(-174.44 -101.57)"/><path class="cls-17" d="M1694.85,971.37c.62,1.37.31,2.86-.69,3.3s-2.31-.3-2.93-1.68-.31-2.85.69-3.3S1694.23,970,1694.85,971.37Z" transform="translate(-174.44 -101.57)"/><path class="cls-14" d="M1701,935.12s.6,11.9,15.47,13.93,25.13,8.33,23.13,19-26,32.94-8.35,41.54,13.87-7.44,33-3.72,22.54-21.78,9.39-36.58-7.82-54-57.14-52.23-31.25,41.08-31.25,41.08S1701.07,948.27,1701,935.12Z" transform="translate(-174.44 -101.57)"/><path class="cls-19" d="M1736.36,1011.84c-3.71-1.5-6-3.73-6.78-6.63-2.17-8,7.14-20.05,15.35-30.7,2.16-2.8,4.2-5.44,6-8,5-7,5.46-15,1.16-21.48-4.71-7.06-13.69-10-23.43-7.78s-16.38.21-20.27-1.89a18.1,18.1,0,0,1-6.2-5.17l.33-.23c.08.12,7.75,11.14,26,6.89,9.9-2.29,19.05.76,23.85,8,4.33,6.49,3.89,14.89-1.16,21.93-1.81,2.54-3.86,5.18-6,8-8.15,10.57-17.4,22.55-15.28,30.34.76,2.82,2.9,4.9,6.54,6.37Z" transform="translate(-174.44 -101.57)"/><path class="cls-12" d="M1686.54,988.8c-4.18-1.54-7.85-6.15-9.82-12.34-3.21-10.09-1-21.31,5-25a7.92,7.92,0,0,1,7.22-.72c4.18,1.54,7.86,6.15,9.83,12.33h0c3.21,10.07,1,21.3-5,25a7.93,7.93,0,0,1-4.26,1.25A8.68,8.68,0,0,1,1686.54,988.8Zm11.07-25.35c-1.85-5.83-5.24-10.14-9.07-11.56a6.88,6.88,0,0,0-6.14.59c-5.54,3.44-7.55,14-4.5,23.6,1.85,5.82,5.24,10.14,9.07,11.56a6.94,6.94,0,0,0,6.14-.59c5.53-3.46,7.55-14,4.5-23.6Z" transform="translate(-174.44 -101.57)"/><g class="cls-22"><ellipse class="cls-19" cx="1718.97" cy="962.26" rx="12.67" ry="18.66" transform="translate(-187.47 -77.9) rotate(-0.79)"/></g><g class="cls-22"><path class="cls-19" d="M1699.06,963.88c2.24,9.84-.74,20.52-6.65,23.84s-12.53-2-14.76-11.8.74-20.52,6.65-23.85S1696.82,954,1699.06,963.88Z" transform="translate(-174.44 -101.57)"/></g><path class="cls-12" d="M1713.75,980.14c-4.27-2.07-7.54-6.76-9-12.86-2.44-10.47,1.53-21.77,8.84-25.21a10.2,10.2,0,0,1,9,.07c4.27,2.08,7.52,6.76,8.93,12.85h0c2.44,10.48-1.52,21.79-8.84,25.21a10.26,10.26,0,0,1-4.44,1A10.53,10.53,0,0,1,1713.75,980.14Zm.4-37c-6.79,3.2-10.45,13.88-8.15,23.81,1.31,5.66,4.42,10.16,8.3,12a9.21,9.21,0,0,0,7.94.06c6.81-3.21,10.47-13.89,8.16-23.82h0c-1.31-5.63-4.4-10.12-8.28-12a9,9,0,0,0-8-.07Z" transform="translate(-174.44 -101.57)"/><path class="cls-12" d="M1697.75,967.55a1.12,1.12,0,0,0,.73-.27h0c.13-.11,3.12-2.45,8.29-1.47a1.19,1.19,0,0,0,1.36-.91,1.12,1.12,0,0,0-.91-1.34,12.42,12.42,0,0,0-10.21,1.93,1.17,1.17,0,0,0,.74,2.06Z" transform="translate(-174.44 -101.57)"/><path class="cls-15" d="M1773.53,1279.91S1658.8,1258,1621.6,1268.33l17.84,26.43,66.31,3.75Z" transform="translate(-174.44 -101.57)"/><path class="cls-23" d="M1704.08,1021s-62.94,36.25-61,236.2l4.17,110.11s-21,1.72-36.09,0c0,0-15.79-208.87,19.75-288.79Z" transform="translate(-174.44 -101.57)"/><path class="cls-23" d="M1756.36,1019.18S1730,1106.61,1729,1205.92s6.45,168.28,6.45,168.28,76.43,18.64,127.69,0l-25.06-309.77Z" transform="translate(-174.44 -101.57)"/><path class="cls-23" d="M1756.36,1019.18s66.18,6.46,81.69,45.25l-17.48,14.09-33.42-7Z" transform="translate(-174.44 -101.57)"/><path class="cls-23" d="M1704.08,1021s-17.13.78-36,12.9-77,101.52-156.26,118l75.52,37.08s58.3-13.26,60.59-27.33C1663.89,1063.58,1704.08,1021,1704.08,1021Z" transform="translate(-174.44 -101.57)"/><path class="cls-13" d="M2016.26,1390.25l38.36,22c3.19,1.83,3.94,7.08,1.71,12l-1.87,4.12c-2.33,5.15-7.07,8-10.57,6.44l-39.7-18Z" transform="translate(-174.44 -101.57)"/><path class="cls-13" d="M1328.75,1055.57s-13-3.51-13.7-.76c-1.17,4.44,9.6,9.81,9.6,9.81Z" transform="translate(-174.44 -101.57)"/><path class="cls-13" d="M2004.42,1373.44a6.08,6.08,0,0,1-1.27-.13,6.32,6.32,0,0,1-4.92-7.44l5.23-25.56a5.42,5.42,0,0,0-3.35-5.46l-205.66-83.75a6.31,6.31,0,0,1,4.76-11.68l205.65,83.75A18.07,18.07,0,0,1,2016,1342c0,.17,0,.34-.08.51l-5.29,25.86A6.31,6.31,0,0,1,2004.42,1373.44Z" transform="translate(-174.44 -101.57)"/><path class="cls-14" d="M1378.28,1126.62l616.16,308.31c6.15,2.71,25.51-10.07,33.11-33l6.84-15.09a12.27,12.27,0,0,0-5.88-16.14l-617.18-304.23Z" transform="translate(-174.44 -101.57)"/><path class="cls-13" d="M1939.56,1326.85s-4.45,40.28-36.25,62.48l-44.89-22.46s31-24.81,34.39-63.06Z" transform="translate(-174.44 -101.57)"/><path class="cls-24" d="M1328.73,1055.62l-3.76,8.28a6.46,6.46,0,0,0,1.13,7l44.66,49.77a21.64,21.64,0,0,0,25.83,5c6.26-3.25,12.7-9.27,16.69-20.3,5.1-14.11,5.34-23.63,3.79-30a17.18,17.18,0,0,0-14.48-12.69l-69.71-9.32A3.94,3.94,0,0,0,1328.73,1055.62Z" transform="translate(-174.44 -101.57)"/><path class="cls-13" d="M1998.84,1418.82a1,1,0,0,1-.44-.11l-68.9-35.36a1,1,0,1,1,.89-1.73l68.89,35.37a1,1,0,0,1-.44,1.83Z" transform="translate(-174.44 -101.57)"/><path class="cls-13" d="M1859.71,1348.39a.94.94,0,0,1-.43-.1L1427,1133.49a1,1,0,0,1,.87-1.73l432.29,214.79a1,1,0,0,1,.44,1.3A1,1,0,0,1,1859.71,1348.39Z" transform="translate(-174.44 -101.57)"/><polygon class="cls-10" points="1477.01 1077.88 1501.8 1079 1515.32 1114.65 1509.49 1117.68 1477.01 1077.88"/><path class="cls-10" d="M1651.45,1179.45s-25.48-3.42-36.9,6.38-18.58,31-10.22,26.39,17.45-13.38,17.45-13.38-18.51,19.72-12,22.05,22.41-15,22.41-15-20.15,25.21-13.31,25.43,22-19,22-19-17.81,24.21-9.86,24.28,14.59-20.11,21.07-17.77,33,9.39,41.72-7.84Z" transform="translate(-174.44 -101.57)"/><path class="cls-11" d="M1622.24,1199.16l-.92-.63c.19-.27,4.62-6.59,9.55-6.59h.05v1.11h-.05C1626.52,1193.05,1622.28,1199.1,1622.24,1199.16Z" transform="translate(-174.44 -101.57)"/><path class="cls-11" d="M1632.63,1206.23l-.92-.62c.17-.26,4.39-6.5,11.26-7.82l.21,1.09C1636.77,1200.11,1632.67,1206.17,1632.63,1206.23Z" transform="translate(-174.44 -101.57)"/><path class="cls-11" d="M1641.33,1212.62l-.92-.63c.22-.32,5.48-7.85,10.75-7.36l-.1,1.11C1646.44,1205.29,1641.38,1212.55,1641.33,1212.62Z" transform="translate(-174.44 -101.57)"/><path class="cls-10" d="M1472.28,1175.91s-11.48-2.75-6.27-13.67c6.64-13.91,26.79-29.5,27.49-19.76.16,2.21-6.72,13.89-6.72,13.89s16.14-19,20.35-12.85-10.43,23.13-10.43,23.13,16.75-15.92,18.81-9-8.09,18.09-8.09,18.09,14.7-14.84,16.9-6.77-11.31,17.7-16,23.07c-4.4,5.07-8.74,2.86-13.85-1.79a9.73,9.73,0,0,1-9.53-5.83c-.72-1.6-4.79-.88-5.85-1.56A23.67,23.67,0,0,1,1472.28,1175.91Z" transform="translate(-174.44 -101.57)"/><path class="cls-23" d="M1830.49,1168.57c33.31-48.44,8.35-101.89,7.56-104.14,0,0-2.78-4.15-29.2,5.94s-24.94,16.39-24.94,16.39a69.56,69.56,0,0,1-9.84,51.78c-16.24,24.73-49.79,35.31-104.36,40.33l16.31,53.66C1700.88,1231.17,1791.23,1225.66,1830.49,1168.57Z" transform="translate(-174.44 -101.57)"/><path class="cls-13" d="M1728.62,1227.3a.7.7,0,0,1-.09-1.4c46.27-6.4,74.89-29.08,90.76-47,17.19-19.41,23.53-37.54,23.59-37.72a.71.71,0,0,1,.89-.43.7.7,0,0,1,.43.89c-.06.18-6.46,18.53-23.83,38.14-16,18.09-44.92,41-91.65,47.49Z" transform="translate(-174.44 -101.57)"/><path class="cls-13" d="M1730.52,1168.76a.7.7,0,0,1-.68-.54.71.71,0,0,1,.53-.84c29.12-6.77,44.31-54.1,44.46-54.57a.7.7,0,0,1,.88-.46.69.69,0,0,1,.45.88,138,138,0,0,1-11.35,25.06c-6.92,11.88-18.46,26.81-34.13,30.45A.41.41,0,0,1,1730.52,1168.76Z" transform="translate(-174.44 -101.57)"/><path class="cls-14" d="M1163.65,1141.83c-15.26,0-27.15-5.87-34.87-17.57-7.12-10.81-9.22-23.12-6.23-36.57,5.07-22.88,24.68-48.86,58.27-77.23a442.88,442.88,0,0,1,48.47-35.53,5.16,5.16,0,1,1,5.41,8.8c-.91.56-91,56.52-102.07,106.2-2.38,10.77-.82,20.14,4.78,28.64,15.1,22.89,49.47,10.21,68.61.61,61.6-30.89,121.76-102.77,111-132.62-1.8-5-4.68-7.42-9.33-7.91-24.26-2.57-76.67,46.07-84.08,58a5.17,5.17,0,0,1-8.77-5.46c4.4-7.08,20.39-23.44,38.55-37.51,16.12-12.5,38.81-27,55.38-25.28,8.61.9,14.83,6,18,14.67,3.83,10.61,5,34.69-30.63,76.67-23.86,28.16-55.8,53.84-85.44,68.7C1192.8,1137.37,1176.94,1141.83,1163.65,1141.83Z" transform="translate(-174.44 -101.57)"/></svg>